<?xml version="1.0" standalone="no"?>
<!DOCTYPE svg PUBLIC "-//W3C//DTD SVG 20010904//EN"
 "http://www.w3.org/TR/2001/REC-SVG-20010904/DTD/svg10.dtd">
<svg version="1.0" xmlns="http://www.w3.org/2000/svg"
 width="32.000000pt" height="32.000000pt" viewBox="0 0 32.000000 32.000000"
 preserveAspectRatio="xMidYMid meet">
<metadata>
Created by potrace 1.10, written by Peter Selinger 2001-2011
</metadata>
<g transform="translate(0.000000,32.000000) scale(0.100000,-0.100000)"
fill="#000000" stroke="none">
<path d="M62 256 c-23 -30 -45 -62 -48 -70 -10 -27 11 -18 35 15 32 43 53 24
50 -45 -2 -32 1 -51 9 -54 12 -4 17 28 12 72 -1 14 3 17 15 12 27 -10 55 12
55 42 0 20 -11 34 -39 55 -22 15 -41 27 -43 27 -2 0 -22 -24 -46 -54z m86 5
c29 -25 29 -51 -1 -51 -30 0 -60 32 -51 54 8 21 24 20 52 -3z"/>
<path d="M187 140 c-45 -57 -56 -80 -40 -80 4 0 16 12 28 26 l20 26 27 -21
c35 -28 64 -26 83 3 13 19 14 29 6 45 -11 20 -58 61 -71 61 -4 0 -28 -27 -53
-60z m93 5 c19 -20 21 -27 10 -40 -16 -19 -30 -19 -59 4 -21 16 -22 20 -10 39
18 28 30 28 59 -3z"/>
</g>
</svg>
